<?xml version="1.0" standalone="no"?>
<!DOCTYPE svg PUBLIC "-//W3C//DTD SVG 20010904//EN"
 "http://www.w3.org/TR/2001/REC-SVG-20010904/DTD/svg10.dtd">
<svg version="1.0" xmlns="http://www.w3.org/2000/svg"
 width="300.000000pt" height="116.000000pt" viewBox="0 0 300.000000 116.000000"
 preserveAspectRatio="xMidYMid meet">
<metadata>
Created by potrace 1.10, written by Peter Selinger 2001-2011
</metadata>
<g transform="translate(0.000000,116.000000) scale(0.100000,-0.100000)"
fill="#000000" stroke="none">
<path d="M1820 1053 c0 -45 7 -99 15 -124 20 -58 79 -136 137 -178 l46 -35
-37 -26 c-106 -78 -161 -181 -161 -305 l0 -75 84 0 83 0 -5 50 c-15 164 141
269 400 270 255 0 397 -93 398 -262 l0 -58 81 0 81 0 -4 93 c-4 75 -9 102 -31
144 -28 54 -116 148 -148 158 -25 8 -24 22 1 30 34 11 117 99 146 156 23 45
28 70 32 148 4 86 3 94 -13 88 -9 -4 -47 -7 -83 -7 l-67 0 3 -46 c6 -65 -21
-126 -75 -173 -125 -111 -408 -132 -582 -43 -101 51 -134 97 -139 193 l-4 69
-63 0 c-35 0 -70 3 -79 6 -14 5 -16 -5 -16 -73z m140 -3 c0 -82 48 -157 138
-214 20 -13 51 -25 67 -29 17 -3 41 -8 55 -12 52 -14 264 -14 320 1 167 44
256 130 261 253 l3 52 55 -3 56 -3 -1 -70 c0 -103 -42 -173 -169 -280 l-30
-25 35 -30 c130 -113 163 -169 164 -280 l1 -75 -45 -2 c-57 -1 -70 9 -70 61 0
48 -26 110 -62 147 -14 15 -58 43 -99 62 -58 28 -93 37 -164 44 -205 20 -348
-14 -448 -106 -47 -43 -67 -93 -67 -165 0 -32 -2 -35 -40 -41 -21 -4 -49 -4
-61 0 -20 7 -21 12 -15 78 9 112 53 183 174 279 31 25 28 33 -21 67 -43 29
-126 121 -110 121 4 0 3 4 -2 8 -21 15 -38 69 -41 131 -1 36 0 69 2 73 3 4 30
8 60 8 l54 0 0 -50z"/>
<path d="M1012 857 c2 -141 3 -257 3 -257 0 0 -216 113 -479 250 -263 138
-480 250 -482 250 -2 0 -4 -178 -4 -395 l0 -395 85 0 86 0 -3 255 c-2 140 -2
255 0 255 5 0 905 -471 929 -486 12 -8 25 -14 28 -14 3 0 5 179 5 398 l0 397
-85 0 -86 0 3 -258z m143 -134 c0 -200 -2 -363 -5 -362 -3 0 -50 24 -105 54
-162 86 -369 193 -655 341 -74 38 -137 72 -138 77 -7 14 -41 7 -51 -10 -5 -10
-10 -121 -10 -247 -1 -127 -4 -233 -7 -237 -2 -4 -28 -7 -57 -6 l-52 2 -2 363
c-1 199 2 362 6 362 7 0 128 -62 176 -90 17 -10 129 -68 250 -130 121 -62 227
-119 236 -126 8 -8 22 -14 30 -14 8 0 19 -4 25 -9 5 -6 54 -33 108 -61 137
-69 131 -79 133 198 1 119 2 227 2 240 1 22 4 23 59 20 l57 -3 0 -362z"/>
<path d="M1410 711 l0 -400 85 -3 85 -3 0 403 0 402 -85 0 -85 0 0 -399z m142
-1 c-2 -200 -6 -368 -8 -372 -3 -5 -27 -8 -54 -8 l-49 0 -1 376 0 376 57 -4
58 -3 -3 -365z"/>
<path d="M1629 100 c-5 -32 -38 -40 -46 -11 -6 23 -23 29 -23 8 0 -20 22 -37
47 -37 25 0 37 18 31 47 -4 14 -6 12 -9 -7z"/>
<path d="M1680 108 c0 -5 6 -8 14 -8 8 0 17 -10 19 -22 l4 -23 2 23 c1 15 7
22 23 22 12 0 18 3 15 6 -9 10 -77 11 -77 2z"/>
<path d="M1790 102 c0 -26 24 -44 52 -40 17 2 24 11 26 33 2 17 0 26 -4 22 -5
-5 -9 -16 -9 -25 0 -10 -9 -18 -22 -20 -17 -3 -23 2 -23 17 0 11 -4 23 -10 26
-5 3 -10 -3 -10 -13z"/>
<path d="M2200 108 c0 -5 7 -8 15 -8 8 0 15 -9 15 -20 0 -11 5 -20 10 -20 6 0
10 9 10 20 0 12 7 20 17 20 9 0 13 3 10 6 -9 10 -77 11 -77 2z"/>
<path d="M2334 107 c3 -10 2 -16 -3 -13 -4 3 -16 -3 -26 -14 -10 -11 -13 -20
-7 -20 6 0 13 4 16 9 7 10 25 9 44 -3 23 -14 21 -2 -5 29 -15 17 -23 22 -19
12z"/>
<path d="M2753 108 c-2 -5 6 -8 18 -8 16 0 20 -5 16 -20 -3 -11 -1 -20 4 -20
5 0 9 9 9 20 0 11 7 20 15 20 8 0 15 3 15 8 0 4 -16 7 -36 7 -20 0 -38 -3 -41
-7z"/>
<path d="M2903 112 c-21 -2 -33 -9 -33 -18 0 -9 12 -14 33 -15 l32 -2 -35 -7
-35 -8 40 1 c49 2 53 20 5 26 l-35 5 40 5 c47 7 36 18 -12 13z"/>
<path d="M1450 83 c0 -16 4 -23 8 -17 4 7 18 14 32 17 23 4 23 4 -5 7 -28 3
-27 3 10 10 l40 7 -42 2 c-41 1 -43 -1 -43 -26z"/>
<path d="M1910 83 c0 -22 2 -25 10 -13 7 12 12 12 22 2 6 -6 19 -12 28 -11 10
0 9 3 -5 9 -17 7 -17 9 -2 9 9 1 17 8 17 16 0 10 -11 15 -35 15 -32 0 -35 -3
-35 -27z m53 10 c-7 -2 -21 -2 -30 0 -10 3 -4 5 12 5 17 0 24 -2 18 -5z"/>
<path d="M2020 85 c0 -23 3 -25 43 -24 l42 2 -40 7 c-39 6 -39 6 -10 12 l30 5
-30 3 c-28 3 -27 3 10 10 l40 7 -42 2 c-40 1 -43 -1 -43 -24z"/>
<path d="M2410 85 c0 -26 14 -34 24 -12 5 10 7 10 12 0 3 -7 15 -13 27 -12 21
0 21 1 3 8 -18 7 -18 8 -3 14 31 12 18 27 -23 27 -36 0 -40 -2 -40 -25z m63 8
c-7 -2 -21 -2 -30 0 -10 3 -4 5 12 5 17 0 24 -2 18 -5z"/>
<path d="M2534 95 c-9 -22 4 -35 37 -35 19 0 29 5 29 15 0 8 -8 15 -17 15 -16
0 -16 -2 -3 -11 12 -8 10 -9 -10 -7 -34 4 -31 22 6 29 l29 7 -33 1 c-20 1 -35
-5 -38 -14z"/>
<path d="M2640 85 c0 -23 3 -25 43 -24 l42 2 -40 7 c-39 6 -39 6 -10 12 l30 5
-30 3 c-28 3 -27 3 10 10 l40 7 -42 2 c-40 1 -43 -1 -43 -24z"/>
</g>
</svg>
