<?xml version="1.0" standalone="no"?>
<!DOCTYPE svg PUBLIC "-//W3C//DTD SVG 20010904//EN"
 "http://www.w3.org/TR/2001/REC-SVG-20010904/DTD/svg10.dtd">
<svg version="1.0" xmlns="http://www.w3.org/2000/svg"
 width="300.000000pt" height="91.000000pt" viewBox="0 0 300.000000 91.000000"
 preserveAspectRatio="xMidYMid meet">
<metadata>
Created by potrace 1.10, written by Peter Selinger 2001-2011
</metadata>
<g transform="translate(0.000000,91.000000) scale(0.100000,-0.100000)"
fill="#cc0000" stroke="none">
<path d="M1820 817 c0 -122 51 -228 146 -299 57 -43 63 -54 36 -63 -35 -10
-119 -103 -147 -160 -21 -41 -28 -75 -33 -140 l-5 -85 82 0 81 0 0 59 c0 72 9
98 51 146 66 74 190 115 354 115 163 0 266 -33 337 -107 46 -48 58 -79 58
-154 l0 -59 80 0 80 0 0 63 c0 126 -52 229 -151 302 l-58 43 49 33 c55 38 111
106 136 165 9 21 19 76 22 122 l5 82 -82 0 -81 0 0 -59 c0 -72 -9 -98 -51
-146 -66 -74 -190 -115 -354 -115 -158 0 -263 32 -334 102 -45 44 -61 85 -61
158 l0 60 -80 0 -80 0 0 -63z"/>
<path d="M1020 615 c0 -160 -4 -255 -10 -255 -5 0 -216 108 -467 239 -252 132
-466 243 -475 246 -15 6 -17 -22 -18 -384 l0 -391 80 0 80 0 0 255 c0 140 3
255 6 255 5 0 492 -253 820 -426 66 -35 124 -64 127 -64 4 0 7 176 7 390 l0
390 -75 0 -75 0 0 -255z"/>
<path d="M1420 465 l0 -395 75 0 75 0 0 395 0 395 -75 0 -75 0 0 -395z"/>
</g>
</svg>
